<?xml version="1.0" encoding="UTF-8" standalone="no"?>
<!DOCTYPE svg PUBLIC "-//W3C//DTD SVG 1.1//EN" "http://www.w3.org/Graphics/SVG/1.1/DTD/svg11.dtd">
<svg width="100%" height="100%" viewBox="0 0 291 78" version="1.1" xmlns="http://www.w3.org/2000/svg" xmlns:xlink="http://www.w3.org/1999/xlink" xml:space="preserve" xmlns:serif="http://www.serif.com/" style="fill-rule:evenodd;clip-rule:evenodd;stroke-linejoin:round;stroke-miterlimit:2;">
    <g id="Artboard3" transform="matrix(1,0,0,1,-1.90127,-176.814)">
        <rect x="1.901" y="176.814" width="290.02" height="77.313" style="fill:none;"/>
        <g transform="matrix(1,0,0,1,-18.6706,165.302)">
            <g transform="matrix(0.0577596,0,0,0.0658484,0.112834,-25.1498)">
                <g transform="matrix(1,0,0,1,-1040.64,-60.2569)">
                    <path d="M1955.25,774.536C1947.94,770.316 1938.94,770.316 1931.63,774.536C1872.12,808.895 1605.62,962.758 1546.11,997.118C1538.8,1001.34 1529.8,1001.34 1522.49,997.118C1504.61,986.799 1470.58,967.148 1449.73,955.111C1446.07,953.001 1443.82,949.102 1443.82,944.882C1443.82,940.662 1446.07,936.763 1449.73,934.653C1530.69,887.907 1864.46,695.209 1931.63,656.425C1938.94,652.206 1947.94,652.206 1955.25,656.425L2232.59,816.543C2236.24,818.653 2238.49,822.552 2238.49,826.772C2238.49,830.991 2236.24,834.89 2232.59,837L1858.87,1052.76C1855.22,1054.87 1852.97,1058.77 1852.97,1062.99C1852.97,1067.21 1855.22,1071.11 1858.87,1073.22C1879.72,1085.26 1913.76,1104.91 1931.63,1115.23C1938.94,1119.45 1947.94,1119.45 1955.25,1115.23C2014.77,1080.87 2281.26,927.005 2340.78,892.646C2348.09,888.426 2357.09,888.426 2364.4,892.646C2382.27,902.965 2416.31,922.616 2437.16,934.653C2440.81,936.763 2443.06,940.662 2443.06,944.882C2443.06,949.102 2440.81,953.001 2437.16,955.111C2356.19,1001.86 2022.43,1194.56 1955.25,1233.34C1947.94,1237.56 1938.94,1237.56 1931.63,1233.34L1654.3,1073.22C1650.65,1071.11 1648.39,1067.21 1648.39,1062.99C1648.39,1058.77 1650.65,1054.87 1654.3,1052.76C1721.57,1013.93 1960.75,875.837 2028.01,837C2031.67,834.89 2033.92,830.991 2033.92,826.772C2033.92,822.552 2031.67,818.653 2028.01,816.543C2007.16,804.506 1973.13,784.854 1955.25,774.536Z" style="fill:rgb(135,179,14);"/>
                </g>
                <g transform="matrix(1,0,0,1,-1069.66,-9.32502)">
                    <path d="M1943.44,1692.14C1943.44,1696.36 1941.19,1700.26 1937.54,1702.37C1933.88,1704.48 1929.38,1704.48 1925.73,1702.37C1904.88,1690.33 1870.84,1670.68 1852.97,1660.36C1845.66,1656.14 1841.16,1648.34 1841.16,1639.9L1841.16,1312.85C1841.16,1304.41 1836.65,1296.61 1829.35,1292.39C1811.47,1282.08 1777.44,1262.42 1756.59,1250.39C1752.93,1248.28 1748.43,1248.28 1744.78,1250.39C1741.12,1252.5 1738.87,1256.39 1738.87,1260.62L1738.87,1574.03C1738.87,1578.25 1736.62,1582.15 1732.96,1584.26C1729.31,1586.37 1724.81,1586.37 1721.15,1584.26C1700.3,1572.22 1666.27,1552.57 1648.39,1542.25C1641.09,1538.03 1636.58,1530.23 1636.58,1521.8L1636.58,1194.74C1636.58,1186.3 1632.08,1178.5 1624.77,1174.28C1606.9,1163.96 1572.86,1144.31 1552.01,1132.28C1548.36,1130.17 1543.86,1130.17 1540.2,1132.28C1536.55,1134.39 1534.3,1138.29 1534.3,1142.51L1534.3,1455.92C1534.3,1460.14 1532.05,1464.04 1528.39,1466.15C1524.74,1468.26 1520.24,1468.26 1516.58,1466.15C1495.73,1454.11 1461.69,1434.46 1443.82,1424.14C1436.51,1419.92 1432.01,1412.12 1432.01,1403.68L1432.01,965.339C1432.01,961.119 1434.26,957.22 1437.92,955.111C1441.57,953.001 1446.07,953.001 1449.73,955.111C1530.69,1001.86 1864.46,1194.56 1931.63,1233.34C1938.94,1237.56 1943.44,1245.36 1943.44,1253.8L1943.44,1692.14Z" style="fill:rgb(135,179,14);"/>
                </g>
                <g transform="matrix(1,0,0,-1,-499.869,2648.16)">
                    <path d="M1943.44,1692.14C1943.44,1696.36 1941.19,1700.26 1937.54,1702.37C1933.88,1704.48 1929.38,1704.48 1925.73,1702.37C1904.88,1690.33 1870.84,1670.68 1852.97,1660.36C1845.66,1656.14 1841.16,1648.34 1841.16,1639.9L1841.16,1312.85C1841.16,1304.41 1836.65,1296.61 1829.35,1292.39C1811.47,1282.08 1777.44,1262.42 1756.59,1250.39C1752.93,1248.28 1748.43,1248.28 1744.78,1250.39C1741.12,1252.5 1738.87,1256.39 1738.87,1260.62L1738.87,1574.03C1738.87,1578.25 1736.62,1582.15 1732.96,1584.26C1729.31,1586.37 1724.81,1586.37 1721.15,1584.26C1700.3,1572.22 1666.27,1552.57 1648.39,1542.25C1641.09,1538.03 1636.58,1530.23 1636.58,1521.8L1636.58,1194.74C1636.58,1186.3 1632.08,1178.5 1624.77,1174.28C1606.9,1163.96 1572.86,1144.31 1552.01,1132.28C1548.36,1130.17 1543.86,1130.17 1540.2,1132.28C1536.55,1134.39 1534.3,1138.29 1534.3,1142.51L1534.3,1455.92C1534.3,1460.14 1532.05,1464.04 1528.39,1466.15C1524.74,1468.26 1520.24,1468.26 1516.58,1466.15C1495.73,1454.11 1461.69,1434.46 1443.82,1424.14C1436.51,1419.92 1432.01,1412.12 1432.01,1403.68L1432.01,965.339C1432.01,961.119 1434.26,957.22 1437.92,955.111C1441.57,953.001 1446.07,953.001 1449.73,955.111C1530.69,1001.86 1864.46,1194.56 1931.63,1233.34C1938.94,1237.56 1943.44,1245.36 1943.44,1253.8L1943.44,1692.14Z" style="fill:rgb(135,179,14);"/>
                </g>
            </g>
            <g transform="matrix(0.150882,0,0,0.150882,-1827.71,-1374.09)">
                <g transform="matrix(300,0,0,300,12735.9,9555.32)">
                    <path d="M0.037,-0.431L0.173,-0.431C0.173,-0.45 0.175,-0.468 0.179,-0.488C0.182,-0.507 0.188,-0.524 0.197,-0.54C0.206,-0.555 0.217,-0.568 0.232,-0.578C0.246,-0.587 0.263,-0.592 0.284,-0.592C0.315,-0.592 0.34,-0.583 0.36,-0.564C0.379,-0.545 0.389,-0.518 0.389,-0.484C0.389,-0.463 0.384,-0.444 0.375,-0.427C0.365,-0.41 0.353,-0.395 0.339,-0.382C0.324,-0.369 0.308,-0.357 0.291,-0.346C0.274,-0.335 0.257,-0.324 0.242,-0.313C0.212,-0.292 0.184,-0.272 0.157,-0.252C0.13,-0.232 0.106,-0.21 0.086,-0.187C0.066,-0.163 0.05,-0.136 0.039,-0.106C0.027,-0.076 0.021,-0.041 0.021,0L0.535,0L0.535,-0.122L0.204,-0.122C0.221,-0.146 0.241,-0.167 0.264,-0.185C0.287,-0.203 0.31,-0.22 0.334,-0.236C0.358,-0.251 0.382,-0.267 0.406,-0.283C0.429,-0.299 0.45,-0.317 0.469,-0.337C0.488,-0.356 0.503,-0.379 0.514,-0.404C0.525,-0.429 0.531,-0.46 0.531,-0.495C0.531,-0.529 0.525,-0.56 0.512,-0.587C0.499,-0.614 0.481,-0.637 0.459,-0.656C0.437,-0.675 0.411,-0.689 0.383,-0.699C0.354,-0.709 0.323,-0.714 0.291,-0.714C0.249,-0.714 0.212,-0.707 0.18,-0.693C0.147,-0.678 0.12,-0.658 0.099,-0.633C0.078,-0.607 0.062,-0.577 0.051,-0.543C0.04,-0.508 0.036,-0.471 0.037,-0.431Z" style="fill:white;fill-rule:nonzero;"/>
                </g>
                <g transform="matrix(300,0,0,300,12902.7,9555.32)">
                    <path d="M0.069,-0.714L0.069,0L0.216,0L0.216,-0.501L0.218,-0.501L0.393,0L0.514,0L0.689,-0.506L0.691,-0.506L0.691,0L0.838,0L0.838,-0.714L0.617,-0.714L0.459,-0.223L0.457,-0.223L0.29,-0.714L0.069,-0.714Z" style="fill:white;fill-rule:nonzero;"/>
                </g>
                <g transform="matrix(300,0,0,300,13258.2,9555.32)">
                    <path d="M0,-0.714L0.198,0L0.272,0L0.452,-0.639L0.454,-0.639L0.635,0L0.707,0L0.904,-0.714L0.836,-0.714L0.673,-0.089L0.671,-0.089L0.496,-0.714L0.411,-0.714L0.237,-0.089L0.235,-0.089L0.073,-0.714L0,-0.714Z" style="fill:white;fill-rule:nonzero;"/>
                </g>
                <g transform="matrix(300,0,0,300,13530.3,9555.32)">
                    <path d="M0.102,-0.357C0.102,-0.396 0.107,-0.435 0.118,-0.472C0.128,-0.509 0.144,-0.543 0.166,-0.573C0.187,-0.602 0.215,-0.626 0.249,-0.644C0.283,-0.662 0.324,-0.671 0.371,-0.671C0.418,-0.671 0.459,-0.662 0.493,-0.644C0.526,-0.626 0.554,-0.602 0.576,-0.573C0.597,-0.543 0.613,-0.509 0.624,-0.472C0.634,-0.435 0.639,-0.396 0.639,-0.357C0.639,-0.318 0.634,-0.28 0.624,-0.243C0.613,-0.205 0.597,-0.171 0.576,-0.142C0.554,-0.112 0.526,-0.088 0.493,-0.07C0.459,-0.052 0.418,-0.043 0.371,-0.043C0.324,-0.043 0.283,-0.052 0.249,-0.07C0.215,-0.088 0.187,-0.112 0.166,-0.142C0.144,-0.171 0.128,-0.205 0.118,-0.243C0.107,-0.28 0.102,-0.318 0.102,-0.357ZM0.034,-0.357C0.034,-0.308 0.041,-0.261 0.055,-0.216C0.069,-0.171 0.09,-0.132 0.118,-0.098C0.146,-0.064 0.181,-0.037 0.224,-0.017C0.266,0.004 0.315,0.014 0.371,0.014C0.427,0.014 0.476,0.004 0.518,-0.017C0.56,-0.037 0.595,-0.064 0.623,-0.098C0.651,-0.132 0.672,-0.171 0.686,-0.216C0.7,-0.261 0.707,-0.308 0.707,-0.357C0.707,-0.406 0.7,-0.453 0.686,-0.498C0.672,-0.543 0.651,-0.582 0.623,-0.617C0.595,-0.651 0.56,-0.678 0.518,-0.699C0.476,-0.719 0.427,-0.729 0.371,-0.729C0.315,-0.729 0.266,-0.719 0.224,-0.699C0.181,-0.678 0.146,-0.651 0.118,-0.617C0.09,-0.582 0.069,-0.543 0.055,-0.498C0.041,-0.453 0.034,-0.406 0.034,-0.357Z" style="fill:white;fill-rule:nonzero;"/>
                </g>
                <g transform="matrix(300,0,0,300,13752.6,9555.32)">
                    <path d="M0.102,-0.357C0.102,-0.396 0.107,-0.435 0.118,-0.472C0.128,-0.509 0.144,-0.543 0.166,-0.573C0.187,-0.602 0.215,-0.626 0.249,-0.644C0.283,-0.662 0.324,-0.671 0.371,-0.671C0.418,-0.671 0.459,-0.662 0.493,-0.644C0.526,-0.626 0.554,-0.602 0.576,-0.573C0.597,-0.543 0.613,-0.509 0.624,-0.472C0.634,-0.435 0.639,-0.396 0.639,-0.357C0.639,-0.318 0.634,-0.28 0.624,-0.243C0.613,-0.205 0.597,-0.171 0.576,-0.142C0.554,-0.112 0.526,-0.088 0.493,-0.07C0.459,-0.052 0.418,-0.043 0.371,-0.043C0.324,-0.043 0.283,-0.052 0.249,-0.07C0.215,-0.088 0.187,-0.112 0.166,-0.142C0.144,-0.171 0.128,-0.205 0.118,-0.243C0.107,-0.28 0.102,-0.318 0.102,-0.357ZM0.034,-0.357C0.034,-0.308 0.041,-0.261 0.055,-0.216C0.069,-0.171 0.09,-0.132 0.118,-0.098C0.146,-0.064 0.181,-0.037 0.224,-0.017C0.266,0.004 0.315,0.014 0.371,0.014C0.427,0.014 0.476,0.004 0.518,-0.017C0.56,-0.037 0.595,-0.064 0.623,-0.098C0.651,-0.132 0.672,-0.171 0.686,-0.216C0.7,-0.261 0.707,-0.308 0.707,-0.357C0.707,-0.406 0.7,-0.453 0.686,-0.498C0.672,-0.543 0.651,-0.582 0.623,-0.617C0.595,-0.651 0.56,-0.678 0.518,-0.699C0.476,-0.719 0.427,-0.729 0.371,-0.729C0.315,-0.729 0.266,-0.719 0.224,-0.699C0.181,-0.678 0.146,-0.651 0.118,-0.617C0.09,-0.582 0.069,-0.543 0.055,-0.498C0.041,-0.453 0.034,-0.406 0.034,-0.357Z" style="fill:white;fill-rule:nonzero;"/>
                </g>
                <g transform="matrix(300,0,0,300,13974.9,9555.32)">
                    <path d="M0.072,-0.714L0.072,0L0.319,0C0.428,-0.003 0.509,-0.033 0.565,-0.092C0.62,-0.15 0.647,-0.238 0.647,-0.357C0.647,-0.476 0.62,-0.564 0.565,-0.623C0.509,-0.681 0.428,-0.711 0.319,-0.714L0.072,-0.714ZM0.14,-0.058L0.14,-0.656L0.285,-0.656C0.336,-0.656 0.381,-0.651 0.418,-0.64C0.455,-0.628 0.485,-0.611 0.509,-0.587C0.533,-0.563 0.551,-0.532 0.562,-0.494C0.573,-0.456 0.579,-0.41 0.579,-0.357C0.579,-0.304 0.573,-0.258 0.562,-0.22C0.551,-0.182 0.533,-0.151 0.509,-0.127C0.485,-0.103 0.455,-0.086 0.418,-0.075C0.381,-0.064 0.336,-0.058 0.285,-0.058L0.14,-0.058Z" style="fill:white;fill-rule:nonzero;"/>
                </g>
            </g>
        </g>
    </g>
</svg>
